<?xml version="1.0" standalone="no"?>
<!DOCTYPE svg PUBLIC "-//W3C//DTD SVG 20010904//EN"
 "http://www.w3.org/TR/2001/REC-SVG-20010904/DTD/svg10.dtd">
<svg version="1.0" xmlns="http://www.w3.org/2000/svg"
 width="240.000000pt" height="85.000000pt" viewBox="0 0 240.000000 85.000000"
 preserveAspectRatio="xMidYMid meet">

<g transform="translate(0.000000,85.000000) scale(0.100000,-0.100000)"
fill="#000000" stroke="none">
<path d="M334 675 c-3 -19 -11 -33 -18 -32 -18 3 -20 -77 -1 -93 13 -11 14
-10 9 4 -4 11 2 26 17 42 l23 24 17 -26 c9 -15 15 -34 12 -43 -3 -12 0 -11 11
3 9 11 16 36 16 55 0 24 -3 31 -9 23 -6 -10 -14 -4 -30 23 -11 20 -21 40 -21
46 0 24 -20 5 -26 -26z"/>
<path d="M1565 570 c-41 -9 -70 -28 -89 -61 -19 -32 -21 -94 -3 -129 18 -35
74 -70 114 -70 37 0 93 24 93 40 0 13 -10 12 -40 -5 -72 -41 -160 17 -160 106
0 47 56 99 107 99 21 0 49 -7 61 -16 27 -19 43 -10 21 11 -21 21 -69 33 -104
25z"/>
<path d="M120 445 l0 -125 80 0 c79 0 80 0 80 25 0 24 -3 25 -55 25 l-55 0 0
100 0 100 -25 0 -25 0 0 -125z"/>
<path d="M447 563 c-4 -3 -7 -59 -7 -124 l0 -117 64 -7 c71 -7 93 0 125 41 33
42 28 89 -14 131 -31 31 -40 35 -75 31 -38 -3 -40 -2 -40 24 0 23 -4 28 -23
28 -13 0 -27 -3 -30 -7z m133 -113 c11 -11 20 -27 20 -35 0 -17 -35 -55 -51
-55 -29 0 -49 22 -49 53 0 56 42 75 80 37z"/>
<path d="M1080 445 l0 -125 25 0 c24 0 25 2 25 70 0 63 2 70 20 70 15 0 20 7
20 25 0 18 -5 25 -20 25 -16 0 -20 7 -20 30 0 25 -4 30 -25 30 l-25 0 0 -125z"/>
<path d="M714 486 c-26 -26 -34 -42 -34 -71 0 -29 8 -45 34 -71 38 -38 77 -44
126 -19 34 17 37 27 15 45 -12 10 -21 10 -42 1 -44 -20 -39 -3 16 53 l53 53
-28 22 c-43 34 -98 29 -140 -13z m61 -46 c-29 -31 -45 -38 -45 -20 0 16 39 50
57 50 13 0 10 -7 -12 -30z"/>
<path d="M953 513 l-33 -4 0 -95 0 -94 30 0 30 0 0 65 c0 54 3 67 20 77 11 7
20 23 20 35 0 24 -1 24 -67 16z"/>
<path d="M1750 492 c-24 -24 -30 -39 -30 -72 0 -52 13 -76 50 -95 37 -19 80
-19 108 1 12 8 22 10 22 5 0 -6 5 -11 10 -11 6 0 10 38 10 94 0 90 -1 94 -22
95 -13 0 -44 4 -70 7 -43 5 -50 3 -78 -24z m124 -13 c21 -16 26 -29 26 -64 0
-35 -5 -48 -26 -64 -56 -44 -133 -7 -134 65 0 70 78 107 134 63z"/>
<path d="M2030 510 c-8 -5 -23 -7 -32 -4 -16 5 -18 -4 -18 -90 0 -112 18 -131
22 -24 3 70 4 74 35 93 18 11 32 23 33 28 0 10 -22 9 -40 -3z"/>
<path d="M2117 502 c-36 -39 -15 -78 51 -97 80 -23 59 -82 -25 -70 -53 8 -59
-11 -6 -21 67 -13 112 19 99 69 -5 21 -16 29 -53 40 -58 17 -77 42 -48 63 14
11 33 14 65 9 42 -5 44 -4 26 10 -28 21 -89 19 -109 -3z"/>
<path d="M330 415 c0 -95 0 -95 25 -95 25 0 25 0 25 95 0 95 0 95 -25 95 -25
0 -25 0 -25 -95z"/>
<path d="M1210 444 c0 -36 5 -74 10 -85 15 -27 62 -49 107 -49 l38 -1 -27 -24
c-16 -13 -28 -33 -28 -45 0 -30 36 -25 71 9 29 29 29 31 29 145 l0 116 -25 0
c-23 0 -24 -3 -27 -67 -3 -63 -5 -68 -30 -77 -45 -16 -68 13 -68 86 0 55 -1
58 -25 58 -24 0 -25 -2 -25 -66z"/>
</g>
</svg>
